<svg width="40" height="40" viewBox="0 0 40 40" fill="none" xmlns="http://www.w3.org/2000/svg">
<path d="M14.9999 18.3333C16.3185 18.3333 17.6074 17.9423 18.7037 17.2098C19.8 16.4773 20.6545 15.4361 21.1591 14.2179C21.6637 12.9997 21.7957 11.6593 21.5385 10.3661C21.2813 9.07286 20.6463 7.88497 19.714 6.95262C18.7816 6.02027 17.5937 5.38534 16.3005 5.1281C15.0073 4.87087 13.6669 5.00289 12.4487 5.50747C11.2305 6.01206 10.1893 6.86654 9.45679 7.96287C8.72424 9.0592 8.33325 10.3481 8.33325 11.6667C8.33325 13.4348 9.03563 15.1305 10.2859 16.3807C11.5361 17.631 13.2318 18.3333 14.9999 18.3333ZM28.3333 21.6667C29.3222 21.6667 30.2889 21.3734 31.1111 20.824C31.9333 20.2746 32.5742 19.4937 32.9527 18.5801C33.3311 17.6665 33.4301 16.6611 33.2372 15.6912C33.0443 14.7213 32.568 13.8304 31.8688 13.1311C31.1695 12.4319 30.2786 11.9557 29.3087 11.7627C28.3388 11.5698 27.3335 11.6688 26.4198 12.0473C25.5062 12.4257 24.7253 13.0666 24.1759 13.8888C23.6265 14.7111 23.3333 15.6778 23.3333 16.6667C23.3333 17.9928 23.86 19.2645 24.7977 20.2022C25.7354 21.1399 27.0072 21.6667 28.3333 21.6667ZM34.9999 33.3333C35.4419 33.3333 35.8659 33.1577 36.1784 32.8452C36.491 32.5326 36.6666 32.1087 36.6666 31.6667C36.6652 30.109 36.2274 28.5829 35.4026 27.2615C34.5778 25.9401 33.3992 24.8763 32.0005 24.1908C30.6018 23.5053 29.0389 23.2256 27.4892 23.3833C25.9396 23.5411 24.4651 24.13 23.2333 25.0833C21.6008 23.4573 19.5233 22.351 17.263 21.904C15.0026 21.4571 12.6605 21.6895 10.532 22.5719C8.40348 23.4543 6.58394 24.9472 5.30282 26.8624C4.0217 28.7776 3.33637 31.0292 3.33325 33.3333C3.33325 33.7754 3.50885 34.1993 3.82141 34.5119C4.13397 34.8244 4.55789 35 4.99992 35H24.9999C25.4419 35 25.8659 34.8244 26.1784 34.5119C26.491 34.1993 26.6666 33.7754 26.6666 33.3333" fill="#52C868"/>
</svg>
