<svg width="40" height="40" viewBox="0 0 40 40" fill="none" xmlns="http://www.w3.org/2000/svg">
<path d="M36.7969 20.4219L20.3828 3.89062L20.2656 3.77344H20.2344C19.5859 3.15625 18.8359 2.83594 17.8984 2.8125L10.1094 2.52344L9.76563 2.50781C8.89063 2.52344 8.03125 2.85938 7.36719 3.53125L3.52344 7.36719C2.82031 8.07031 2.5 9 2.5 9.92188V9.92969L2.52344 10.2578L3.04688 17.8594V18.0234C3.125 18.7031 3.39844 19.375 3.85938 19.9297L4.28906 20.3516L20.4063 36.6641L20.6484 36.9062C21.5781 37.7266 22.9922 37.6875 23.875 36.7969L36.7969 23.7812C37.7188 22.8594 37.7344 21.3516 36.7969 20.4219ZM11.25 15C9.17969 15 7.5 13.3203 7.5 11.25C7.5 9.17969 9.17969 7.5 11.25 7.5C13.3203 7.5 15 9.17969 15 11.25C15 13.3203 13.3203 15 11.25 15Z" fill="#52C868"/>
</svg>
