<svg width="40" height="40" viewBox="0 0 40 40" fill="none" xmlns="http://www.w3.org/2000/svg">
<path d="M13.2607 31.9515C12.4243 32.2848 11.6425 31.9818 11.2849 31.7758C10.6849 31.4303 10.2728 30.8364 10.1516 30.1576L9.73945 27.8364L5.75764 33.3758C5.394 33.8 5.71521 34.7758 6.594 34.5879L11.5213 33.2727L12.8485 38.2C12.9455 38.7152 13.8849 39.1515 14.3152 38.3212L17.1273 32.0849L16.1395 30.9152L13.2607 31.9515ZM35.6182 33.3758L31.0304 27L30.194 27.1515L29.6546 30.1576C29.5334 30.8424 29.1152 31.4303 28.5152 31.7818C28.1576 31.9879 27.5334 32.2727 26.5455 31.9576L23.7273 30.9394L27.0607 38.3212C27.2001 38.7758 28.1698 39.1394 28.5273 38.2L29.8425 33.2727L34.7698 34.5879C35.7698 34.7152 35.9213 33.7697 35.6182 33.3758ZM19.9092 9.0303C15.594 9.0303 12.0788 12.5455 12.0788 16.8606C12.0788 21.1758 15.594 24.6909 19.9092 24.6909C24.2243 24.6909 27.7395 21.1758 27.7395 16.8606C27.7395 12.5394 24.2243 9.0303 19.9092 9.0303ZM23.1698 21.4182L19.9092 19.0485L16.6485 21.4182L17.897 17.5818L14.6364 15.2121H18.6667L19.9152 11.3758L21.1637 15.2121H25.194L21.9334 17.5818L23.1698 21.4182Z" fill="#52C868"/>
<path d="M28.1212 29.8788L28.8485 25.7939L32.9273 25.0667C33.6788 24.8182 33.6061 24.2485 33.5273 24.0303L32.1212 20.1333L35.2909 17.4545C35.8061 16.8606 35.4667 16.4061 35.2909 16.2606L32.1212 13.5818L33.5273 9.67879C33.6061 9.46061 33.6485 8.83031 32.9273 8.64243L28.8485 7.91515L28.1212 3.83031C28.0788 3.60606 27.7333 3.01818 27.0849 3.23031L23.1818 4.63637L20.503 1.46667C20.2061 1.11515 19.6061 1.11515 19.3091 1.46667L16.6303 4.63637L12.7273 3.23031C12.3818 3.09697 11.8061 3.24849 11.6909 3.83031L10.9636 7.91515L6.87879 8.64243C6.23637 8.77576 6.15152 9.40606 6.27879 9.67879L7.68485 13.5818L4.51516 16.2606C4.02425 16.7455 4.27273 17.2788 4.51516 17.4545L7.68485 20.1273L6.27879 24.0303C6.2 24.2485 6.13334 24.8667 6.87879 25.0667L10.9636 25.7939L11.6909 29.8788C11.8788 30.5879 12.5091 30.5576 12.7273 30.4788L16.6303 29.0727L19.3091 32.2424C19.4546 32.4182 19.9515 32.7636 20.503 32.2424L23.1818 29.0727L27.0849 30.4788C27.8364 30.6545 28.0788 30.1091 28.1212 29.8788ZM19.9091 26.2545C14.7273 26.2545 10.5152 22.0424 10.5152 16.8606C10.5152 11.6788 14.7273 7.46667 19.9091 7.46667C25.0909 7.46667 29.303 11.6788 29.303 16.8606C29.303 22.0424 25.0909 26.2545 19.9091 26.2545Z" fill="#52C868"/>
</svg>
